<svg width="100" height="100" viewBox="0 0 100 100" fill="none" xmlns="http://www.w3.org/2000/svg">
<path fill-rule="evenodd" clip-rule="evenodd" d="M61.3013 1L33.4271 98.0526H37.5888L65.463 1H61.3013ZM18.0764 8.98837C16.4234 10.9478 16.1672 13.3371 16.1672 15.088C16.1672 17.3025 16.2081 19.4621 16.2515 21.56L16.264 22.1626C16.3032 24.0427 16.3415 25.8765 16.349 27.6294C16.3656 31.4873 16.2368 35.1046 15.5969 38.2029C14.9548 41.3113 13.756 44.1103 11.4652 46.1097C9.55358 47.7782 7.07424 48.7233 4.00011 48.9996V50.053C7.07424 50.3293 9.55358 51.2744 11.4652 52.9429C13.756 54.9422 14.9548 57.7413 15.5969 60.8497C16.2369 63.948 16.3657 67.5653 16.3491 71.4232C16.3415 73.1761 16.3033 75.0098 16.2641 76.8899V76.89L16.2516 77.4925C16.2082 79.5905 16.1673 81.75 16.1673 83.9645C16.1673 85.7154 16.4235 88.1047 18.0765 90.0642C19.6823 91.9676 22.9834 93.8958 30.0374 93.8958V97.8958C22.2793 97.8958 17.6454 95.7565 15.0191 92.6434C12.4401 89.5863 12.1673 86.0099 12.1673 83.9645C12.1673 81.7047 12.209 79.5087 12.2524 77.4098L12.2649 76.8101C12.3042 74.9236 12.3417 73.1238 12.3491 71.4059C12.3656 67.5864 12.2299 64.3228 11.6796 61.6589C11.1314 59.005 10.2142 57.1603 8.83499 55.9565C7.47513 54.7696 5.39028 53.9668 2.00011 53.9668H0.000106812V51.9668V47.0858V45.0858H2.00011C5.39028 45.0858 7.47511 44.283 8.83497 43.0961C10.2142 41.8923 11.1314 40.0476 11.6796 37.3937C12.2298 34.7297 12.3655 31.4662 12.349 27.6466C12.3416 25.9289 12.3041 24.1291 12.2648 22.2427L12.2648 22.2426L12.2523 21.6427C12.2089 19.5439 12.1672 17.3478 12.1672 15.088C12.1672 13.0426 12.44 9.46629 15.019 6.40913C17.6453 3.29601 22.2792 1.15671 30.0373 1.15671V5.15671C22.9833 5.15671 19.6822 7.08491 18.0764 8.98837ZM81.3621 9.01666C83.0763 10.9735 83.3385 13.3495 83.3385 15.088C83.3385 17.3017 83.296 19.4605 83.251 21.5584L83.238 22.161L83.2379 22.1617C83.1972 24.0415 83.1575 25.8756 83.1497 27.6291C83.1324 31.4879 83.2661 35.1118 83.9323 38.2178C84.602 41.3401 85.852 44.141 88.2233 46.134C90.2057 47.8002 92.7767 48.7386 95.9736 49.0057V50.047C92.7767 50.314 90.2057 51.2524 88.2233 52.9186C85.852 54.9116 84.602 57.7125 83.9322 60.8348C83.266 63.9408 83.1323 67.5647 83.1496 71.4235C83.1574 73.1772 83.1972 75.0116 83.2379 76.8917L83.2509 77.4941C83.2959 79.592 83.3384 81.7509 83.3384 83.9645C83.3384 85.7031 83.0762 88.0791 81.3619 90.0359C79.6812 91.9544 76.2192 93.8958 68.8578 93.8958V97.8958C76.8782 97.8958 81.6566 95.7698 84.3707 92.6717C87.0512 89.6119 87.3384 86.0223 87.3384 83.9645C87.3384 81.7038 87.295 79.5071 87.25 77.4083L87.237 76.8085V76.8082V76.8078C87.1962 74.9214 87.1572 73.1225 87.1495 71.4056C87.1325 67.587 87.2735 64.33 87.8433 61.6737C88.4096 59.0337 89.357 57.1909 90.7969 55.9807C92.2278 54.7781 94.4242 53.9668 97.9736 53.9668H99.9736V51.9668V47.0858V45.0858H97.9736C94.4243 45.0858 92.2278 44.2746 90.7969 43.0719C89.357 41.8617 88.4096 40.0189 87.8433 37.3788C87.2735 34.7225 87.1325 31.4656 87.1496 27.6469C87.1573 25.9304 87.1962 24.1319 87.2371 22.246L87.2371 22.2442L87.2501 21.6443C87.2951 19.5455 87.3385 17.3487 87.3385 15.088C87.3385 13.0303 87.0513 9.44061 84.3708 6.38084C81.6567 3.28274 76.8783 1.15671 68.8579 1.15671V5.15671C76.2193 5.15671 79.6813 7.09818 81.3621 9.01666Z" fill="#131313"/>
</svg>
